<svg xmlns="http://www.w3.org/2000/svg" xmlns:xlink="http://www.w3.org/1999/xlink" width="805" zoomAndPan="magnify" viewBox="0 0 603.75 488.249999" height="651" preserveAspectRatio="xMidYMid meet" version="1.0"><defs><clipPath id="9ca75bbb58"><path d="M 26 189 L 167 189 L 167 486.003906 L 26 486.003906 Z M 26 189 " clip-rule="nonzero"/></clipPath><clipPath id="d957790a66"><path d="M 178 466 L 221 466 L 221 486.003906 L 178 486.003906 Z M 178 466 " clip-rule="nonzero"/></clipPath><clipPath id="1ab3dca3ba"><path d="M 241 466 L 284 466 L 284 486.003906 L 241 486.003906 Z M 241 466 " clip-rule="nonzero"/></clipPath><clipPath id="fd6a265b24"><path d="M 399 460 L 454 460 L 454 486.003906 L 399 486.003906 Z M 399 460 " clip-rule="nonzero"/></clipPath><clipPath id="5a0afc70e2"><path d="M 444 460 L 499 460 L 499 486.003906 L 444 486.003906 Z M 444 460 " clip-rule="nonzero"/></clipPath><clipPath id="e4bf0ea5aa"><path d="M 0.339844 486 L 603.164062 486 L 603.164062 486.003906 L 0.339844 486.003906 Z M 0.339844 486 " clip-rule="nonzero"/></clipPath></defs><g clip-path="url(#9ca75bbb58)"><path fill="#f2f2f2" d="M 136.082031 246.558594 C 128.410156 246.042969 124.839844 247.535156 122.535156 249.054688 C 121.792969 249.542969 121.0625 250.113281 120.375 250.730469 C 123.859375 243.660156 127.429688 236.621094 131.066406 229.628906 C 131.089844 230.566406 131.257812 231.011719 131.667969 231.234375 C 132.613281 231.746094 134.8125 230.113281 139.175781 226.835938 C 142.492188 224.339844 142.917969 223.707031 143.164062 223.273438 C 144.03125 221.75 143.957031 220.496094 143.421875 215.023438 C 142.460938 205.203125 142.214844 204.28125 142.679688 201.960938 C 142.839844 201.164062 143.277344 199.238281 142.96875 199.128906 C 142.648438 199.015625 142.152344 201.035156 140.390625 202.351562 C 138.667969 203.636719 137.460938 202.972656 135.898438 203.796875 C 133.875 204.867188 133.320312 207.335938 132.484375 211.316406 C 131.746094 214.835938 131.933594 216.082031 131.492188 222.71875 C 131.367188 224.597656 131.246094 226.058594 131.167969 227.210938 C 127.910156 233.441406 124.714844 239.714844 121.574219 246.011719 C 121.617188 245.839844 121.65625 245.675781 121.691406 245.535156 C 122.664062 241.550781 122.339844 239.714844 121.851562 238.425781 C 121.0625 236.332031 119.488281 235.082031 116.378906 232.660156 C 113.332031 230.292969 110.75 228.925781 107.652344 227.304688 C 103.589844 225.183594 101.558594 224.121094 101.007812 224.429688 C 99.625 225.210938 99.832031 229.296875 100.988281 234.40625 C 98.355469 233.050781 96.960938 232.414062 96.519531 232.664062 C 96.328125 232.769531 96.167969 232.941406 96.035156 233.167969 C 94.070312 233.074219 91.464844 233.183594 88.480469 233.574219 C 90.835938 232.722656 93.480469 231.601562 96.328125 230.070312 C 98.796875 228.746094 100.027344 228.070312 99.910156 227.511719 C 99.488281 225.515625 82.625 225.554688 68.171875 233.144531 C 61.367188 236.714844 59.105469 239.855469 57.933594 242.355469 C 57.558594 243.160156 57.234375 244.03125 56.96875 244.917969 C 56.242188 237.066406 55.601562 229.199219 55.042969 221.339844 C 55.554688 222.125 55.929688 222.417969 56.398438 222.394531 C 57.46875 222.332031 58.492188 219.792969 60.496094 214.714844 C 62.015625 210.855469 62.046875 210.09375 62.03125 209.59375 C 61.972656 207.84375 61.253906 206.8125 57.933594 202.429688 C 51.980469 194.558594 51.285156 193.902344 50.46875 191.683594 C 50.1875 190.917969 49.554688 189.050781 49.230469 189.117188 C 48.902344 189.1875 49.535156 191.167969 48.71875 193.214844 C 47.925781 195.207031 46.546875 195.277344 45.648438 196.796875 C 44.488281 198.765625 45.304688 201.160156 46.671875 204.988281 C 47.882812 208.378906 48.695312 209.339844 51.792969 215.226562 C 52.667969 216.894531 53.332031 218.203125 53.867188 219.226562 C 54.347656 226.238281 54.90625 233.257812 55.523438 240.265625 C 55.472656 240.097656 55.417969 239.9375 55.375 239.796875 C 54.121094 235.894531 52.882812 234.5 51.792969 233.65625 C 50.023438 232.285156 48.03125 232.042969 44.113281 231.605469 C 40.277344 231.183594 37.363281 231.367188 33.875 231.605469 C 29.300781 231.921875 27.015625 232.078125 26.707031 232.632812 C 25.867188 234.148438 28.714844 238.039062 32.96875 242.203125 C 29.496094 242.449219 27.722656 242.628906 27.457031 243.109375 C 26.757812 244.371094 28.605469 247.265625 31.683594 250.59375 C 29.542969 250.777344 28.414062 250.96875 28.207031 251.34375 C 25.859375 255.570312 52.09375 278.210938 57.894531 273.867188 C 58.335938 273.539062 58.648438 273.054688 58.863281 272.464844 C 58.957031 273.261719 59.054688 274.0625 59.152344 274.859375 C 52.296875 274.089844 39.128906 276.15625 31.316406 284.332031 C 27.429688 288.398438 26.847656 291.910156 26.707031 293.035156 C 26.097656 298.035156 28.53125 303.359375 30.550781 303.75 C 31.144531 307.472656 33.015625 310.550781 34.546875 310.523438 C 36.46875 310.488281 36.128906 305.605469 40.691406 300.285156 C 43.871094 296.570312 47.65625 294.726562 49.902344 293.628906 C 54.730469 291.277344 57.535156 291.347656 61.011719 289.429688 C 61.082031 289.945312 61.15625 290.460938 61.226562 290.976562 C 54.855469 292.046875 47.585938 294.777344 42.542969 300.054688 C 38.660156 304.117188 38.074219 307.628906 37.9375 308.753906 C 37.5625 311.835938 38.34375 315.035156 39.46875 317.136719 C 36.40625 320.351562 35.558594 323.710938 33.875 330.40625 C 32.800781 334.679688 33.035156 336.199219 33.875 337.058594 C 34.570312 337.773438 35.667969 338.027344 40.019531 337.570312 C 44.734375 337.078125 47.09375 336.832031 49.230469 336.035156 C 52.613281 334.78125 54.945312 332.621094 59.46875 328.355469 C 61.332031 326.605469 62.90625 325.113281 64.1875 323.816406 C 64.855469 324.042969 65.480469 324.214844 66.113281 324.339844 C 66.1875 324.355469 66.257812 324.367188 66.332031 324.378906 C 67.5 331.292969 68.730469 338.1875 70.03125 345.054688 C 65.808594 345.996094 62.203125 348.777344 60.222656 352.773438 L 44.5625 384.367188 C 43.574219 386.359375 43.050781 388.589844 43.050781 390.816406 L 43.050781 472.050781 C 43.050781 480.058594 49.566406 486.574219 57.574219 486.574219 L 94.125 486.574219 C 102.136719 486.574219 108.652344 480.058594 108.652344 472.050781 L 108.652344 397.25 C 108.652344 395.425781 108.316406 393.640625 107.648438 391.941406 L 92.722656 353.917969 C 90.566406 348.421875 85.410156 344.839844 79.53125 344.710938 C 82.578125 336.667969 85.722656 328.636719 88.980469 320.632812 C 89.480469 320.441406 89.925781 320.238281 90.308594 320.023438 C 90.910156 320.683594 92.140625 321.449219 94.75 322.699219 C 99.03125 324.746094 101.167969 325.769531 103.40625 326.210938 C 106.945312 326.90625 110.0625 326.289062 116.148438 325.019531 C 124.433594 323.296875 128.589844 322.386719 129.457031 319.976562 C 130.65625 316.640625 126.894531 312.34375 125.859375 311.160156 C 123.605469 308.585938 121.121094 307.410156 119.582031 306.707031 C 117.585938 305.789062 111.902344 303.175781 105.027344 304.980469 C 100.699219 306.113281 98.222656 308.535156 93.265625 313.375 C 92.789062 313.84375 92.375 314.265625 92.007812 314.660156 C 91.925781 314.425781 91.835938 314.191406 91.730469 313.957031 C 92.425781 312.28125 93.121094 310.605469 93.824219 308.933594 C 98.910156 304.113281 101.410156 301.457031 100.933594 299.179688 C 100.710938 298.109375 100.039062 297.210938 99.171875 296.460938 C 100.132812 294.246094 101.101562 292.035156 102.078125 289.832031 C 102.527344 289.820312 102.992188 289.796875 103.492188 289.75 C 106.109375 289.503906 109.074219 289.226562 109.390625 287.96875 C 109.558594 287.300781 108.984375 286.328125 107.851562 285.234375 C 109.488281 284.777344 111.980469 281.445312 117.574219 279.644531 C 122.226562 278.144531 126.417969 278.550781 128.90625 278.792969 C 135.328125 279.417969 137.421875 281.5 143.195312 280.957031 C 145.816406 280.710938 148.78125 280.429688 149.097656 279.171875 C 149.238281 278.609375 148.839844 277.820312 148.027344 276.925781 C 149.484375 277.125 151.039062 277.285156 152.699219 277.382812 C 155.496094 277.542969 156.902344 277.613281 157.09375 277.074219 C 157.777344 275.152344 143.382812 266.367188 127.097656 265.269531 C 123.144531 265.003906 120.285156 265.273438 118.121094 265.804688 C 123.324219 263.863281 131.074219 260.90625 139.582031 263.300781 C 142.507812 264.125 148.433594 266.398438 157.191406 266.902344 C 159.988281 267.0625 161.394531 267.132812 161.582031 266.59375 C 162.265625 264.671875 147.886719 255.894531 131.609375 254.792969 C 135.386719 254.027344 139.625 253.816406 144.070312 255.066406 C 147 255.890625 152.925781 258.164062 161.683594 258.667969 C 164.480469 258.828125 165.882812 258.898438 166.074219 258.359375 C 166.757812 256.4375 152.367188 247.652344 136.082031 246.558594 Z M 60.839844 280.214844 C 61.0625 280.042969 61.277344 279.871094 61.484375 279.695312 C 61.859375 280.246094 62.253906 280.667969 62.648438 280.933594 C 62.691406 281.152344 62.734375 281.371094 62.785156 281.585938 C 62.230469 281.527344 61.632812 281.484375 61.003906 281.464844 C 60.949219 281.046875 60.894531 280.632812 60.839844 280.214844 Z M 93.007812 251.410156 C 93.070312 251.777344 93.140625 252.148438 93.214844 252.527344 C 92.519531 252.394531 91.722656 252.300781 90.851562 252.242188 C 91.546875 251.992188 92.265625 251.714844 93.007812 251.410156 Z M 94.664062 258.296875 C 94.128906 258.246094 93.558594 258.207031 92.957031 258.191406 C 93.429688 257.832031 93.894531 257.46875 94.324219 257.109375 C 94.433594 257.503906 94.546875 257.898438 94.664062 258.296875 Z M 82.339844 270.160156 C 87.855469 267.570312 90.707031 268.121094 95.226562 264.726562 C 95.648438 264.410156 96.078125 264.085938 96.496094 263.757812 C 97.996094 267.757812 99.789062 271.570312 101.640625 274.335938 C 96.460938 271.722656 89.351562 269.597656 82.339844 270.160156 Z M 95.609375 237.183594 C 95.777344 239.363281 96.3125 242.136719 97.109375 245.117188 C 97.0625 245.117188 97.019531 245.117188 96.972656 245.117188 C 94.996094 244.121094 93.90625 243.679688 93.523438 243.894531 C 93.128906 244.117188 92.863281 244.613281 92.710938 245.324219 C 86.496094 245.917969 78.117188 247.816406 70.417969 251.855469 C 63.613281 255.429688 61.351562 258.570312 60.179688 261.070312 C 59.683594 262.136719 59.273438 263.320312 58.976562 264.507812 C 58.820312 263.128906 58.664062 261.753906 58.515625 260.375 C 61.859375 259.074219 66.917969 246.5 79.433594 242.953125 C 82.269531 242.148438 88.21875 241.023438 95.609375 237.183594 Z M 59.195312 281.457031 C 59.289062 281.390625 59.375 281.332031 59.46875 281.261719 C 59.613281 281.15625 59.757812 281.046875 59.902344 280.9375 C 59.921875 281.109375 59.945312 281.277344 59.96875 281.449219 C 59.714844 281.449219 59.457031 281.453125 59.195312 281.457031 Z M 61.96875 288.859375 C 62.371094 288.601562 62.78125 288.324219 63.214844 288 C 63.859375 287.511719 64.535156 287.007812 65.144531 286.503906 C 65.617188 286.980469 66.105469 287.257812 66.558594 287.25 C 66.738281 287.246094 66.894531 287.191406 67.039062 287.105469 C 66.644531 288.28125 66.414062 289.429688 66.339844 290.453125 C 65.054688 290.496094 63.675781 290.613281 62.238281 290.820312 C 62.148438 290.164062 62.054688 289.511719 61.96875 288.859375 Z M 78.441406 344.699219 L 73.234375 344.699219 C 72.488281 344.699219 71.753906 344.757812 71.035156 344.867188 C 69.761719 338.117188 68.546875 331.335938 67.398438 324.539062 C 70.457031 324.878906 73.511719 324.265625 78.855469 323.152344 C 82.640625 322.363281 85.554688 321.746094 87.699219 321.074219 C 84.511719 328.925781 81.425781 336.808594 78.441406 344.699219 Z M 90.625 311.949219 C 91.050781 311.550781 91.503906 311.125 91.976562 310.679688 C 91.6875 311.371094 91.410156 312.0625 91.121094 312.753906 C 90.960938 312.476562 90.792969 312.210938 90.625 311.949219 Z M 93.257812 293.546875 C 89.988281 292.53125 87.257812 292.832031 85.578125 293.035156 C 83.472656 293.289062 77.613281 294.007812 72.785156 298.675781 C 71.171875 298.632812 69.347656 298.722656 67.40625 298.964844 C 68.441406 298.492188 69.511719 297.875 70.699219 296.980469 C 72.800781 295.402344 75.183594 293.613281 74.792969 292.375 C 74.613281 291.804688 73.828125 291.328125 72.609375 290.988281 C 73.980469 290.082031 75.683594 289.144531 77.867188 288.441406 C 82.523438 286.941406 86.714844 287.347656 89.203125 287.589844 C 94.589844 288.109375 96.9375 289.65625 100.960938 289.820312 C 100.078125 291.816406 99.203125 293.820312 98.332031 295.824219 C 96.464844 294.550781 94.15625 293.828125 93.257812 293.546875 Z M 105.101562 283.074219 C 105.136719 282.996094 105.171875 282.917969 105.207031 282.839844 C 105.484375 282.808594 105.757812 282.773438 106.027344 282.734375 C 106.046875 283.136719 106.097656 283.503906 106.179688 283.828125 C 105.84375 283.578125 105.480469 283.328125 105.101562 283.074219 Z M 113.550781 267.769531 C 113.527344 267.785156 113.503906 267.804688 113.476562 267.820312 C 113.535156 267.605469 113.59375 267.402344 113.648438 267.199219 C 114.105469 267.136719 114.628906 267.007812 115.214844 266.828125 C 114.585938 267.128906 114.039062 267.445312 113.550781 267.769531 Z M 113.550781 267.769531 " fill-opacity="1" fill-rule="nonzero"/></g><path fill="#ffb6b6" d="M 180.972656 479.722656 L 192.386719 479.722656 L 197.820312 435.683594 L 180.96875 435.6875 Z M 180.972656 479.722656 " fill-opacity="1" fill-rule="nonzero"/><g clip-path="url(#d957790a66)"><path fill="#2f2e41" d="M 220.085938 479.464844 C 220.441406 480.0625 220.628906 481.996094 220.628906 482.691406 C 220.628906 484.832031 218.894531 486.566406 216.753906 486.566406 L 181.398438 486.566406 C 179.9375 486.566406 178.753906 485.382812 178.753906 483.925781 L 178.753906 482.453125 C 178.753906 482.453125 177.003906 478.027344 180.605469 472.574219 C 180.605469 472.574219 185.082031 476.84375 191.769531 470.15625 L 193.742188 466.585938 L 208.019531 477.023438 L 215.929688 478 C 217.664062 478.210938 219.195312 477.964844 220.085938 479.464844 Z M 220.085938 479.464844 " fill-opacity="1" fill-rule="nonzero"/></g><path fill="#ffb6b6" d="M 243.851562 479.722656 L 255.269531 479.722656 L 260.699219 435.683594 L 243.847656 435.6875 Z M 243.851562 479.722656 " fill-opacity="1" fill-rule="nonzero"/><g clip-path="url(#1ab3dca3ba)"><path fill="#2f2e41" d="M 282.96875 479.464844 C 283.324219 480.0625 283.511719 481.996094 283.511719 482.691406 C 283.511719 484.832031 281.777344 486.566406 279.636719 486.566406 L 244.277344 486.566406 C 242.816406 486.566406 241.632812 485.382812 241.632812 483.925781 L 241.632812 482.453125 C 241.632812 482.453125 239.886719 478.027344 243.484375 472.574219 C 243.484375 472.574219 247.960938 476.84375 254.648438 470.15625 L 256.621094 466.585938 L 270.898438 477.023438 L 278.808594 478 C 280.542969 478.210938 282.078125 477.964844 282.96875 479.464844 Z M 282.96875 479.464844 " fill-opacity="1" fill-rule="nonzero"/></g><path fill="#ffb6b6" d="M 239.265625 129.164062 C 239.265625 129.164062 252.414062 123.175781 260.808594 129.164062 C 269.207031 135.152344 276.691406 189.046875 267.710938 198.03125 C 258.726562 207.015625 243.753906 186.800781 243.753906 186.800781 Z M 239.265625 129.164062 " fill-opacity="1" fill-rule="nonzero"/><path fill="#ffb6b6" d="M 189.566406 129.875 C 189.566406 129.875 176.414062 123.886719 168.019531 129.875 C 159.621094 135.863281 152.136719 189.761719 161.121094 198.746094 C 170.101562 207.726562 185.074219 187.515625 185.074219 187.515625 Z M 189.566406 129.875 " fill-opacity="1" fill-rule="nonzero"/><path fill="#ffb6b6" d="M 189.941406 196.125 C 189.941406 196.125 185.449219 216.335938 180.207031 225.316406 L 218.386719 247.773438 L 248.328125 228.3125 C 248.328125 228.3125 234.105469 205.105469 236.351562 198.371094 Z M 189.941406 196.125 " fill-opacity="1" fill-rule="nonzero"/><path fill="#ffb6b6" d="M 450.046875 477.480469 L 435.382812 477.480469 L 428.410156 420.925781 L 450.050781 420.925781 Z M 450.046875 477.480469 " fill-opacity="1" fill-rule="nonzero"/><g clip-path="url(#fd6a265b24)"><path fill="#2f2e41" d="M 399.8125 477.148438 C 399.355469 477.917969 399.113281 480.398438 399.113281 481.292969 C 399.113281 484.039062 401.34375 486.269531 404.089844 486.269531 L 449.496094 486.269531 C 451.371094 486.269531 452.890625 484.75 452.890625 482.875 L 452.890625 480.984375 C 452.890625 480.984375 455.140625 475.300781 450.515625 468.296875 C 450.515625 468.296875 444.765625 473.78125 436.179688 465.191406 L 433.644531 460.605469 L 415.3125 474.011719 L 405.148438 475.265625 C 402.925781 475.539062 400.957031 475.222656 399.8125 477.148438 Z M 399.8125 477.148438 " fill-opacity="1" fill-rule="nonzero"/></g><path fill="#ffb6b6" d="M 495.367188 477.480469 L 480.707031 477.480469 L 473.730469 420.925781 L 495.371094 420.925781 Z M 495.367188 477.480469 " fill-opacity="1" fill-rule="nonzero"/><g clip-path="url(#5a0afc70e2)"><path fill="#2f2e41" d="M 445.132812 477.148438 C 444.675781 477.917969 444.4375 480.398438 444.4375 481.292969 C 444.4375 484.039062 446.664062 486.269531 449.414062 486.269531 L 494.820312 486.269531 C 496.695312 486.269531 498.214844 484.75 498.214844 482.875 L 498.214844 480.984375 C 498.214844 480.984375 500.460938 475.300781 495.835938 468.296875 C 495.835938 468.296875 490.089844 473.78125 481.5 465.191406 L 478.96875 460.605469 L 460.632812 474.011719 L 450.472656 475.265625 C 448.25 475.539062 446.277344 475.222656 445.132812 477.148438 Z M 445.132812 477.148438 " fill-opacity="1" fill-rule="nonzero"/></g><path fill="#ffb6b6" d="M 419.542969 151.234375 C 419.542969 151.234375 417.417969 164.902344 419.878906 173.722656 L 383.765625 237.761719 L 397.8125 248 L 444.726562 188.976562 L 451.226562 159.8125 Z M 419.542969 151.234375 " fill-opacity="1" fill-rule="nonzero"/><path fill="#ffb6b6" d="M 394.800781 235.769531 C 395.449219 236.136719 396.03125 236.601562 396.550781 237.164062 C 397.070312 237.726562 397.519531 238.378906 397.890625 239.117188 C 398.261719 239.855469 398.554688 240.667969 398.765625 241.554688 C 398.972656 242.441406 399.097656 243.386719 399.140625 244.386719 C 399.179688 245.386719 399.132812 246.425781 399 247.5 C 398.867188 248.574219 398.652344 249.667969 398.355469 250.777344 C 398.054688 251.886719 397.679688 252.992188 397.226562 254.089844 C 396.773438 255.191406 396.25 256.265625 395.65625 257.316406 C 395.066406 258.363281 394.417969 259.367188 393.710938 260.324219 C 393.003906 261.28125 392.253906 262.175781 391.457031 263.007812 C 390.664062 263.835938 389.839844 264.585938 388.988281 265.253906 C 388.136719 265.921875 387.273438 266.5 386.394531 266.984375 C 385.519531 267.46875 384.648438 267.847656 383.78125 268.128906 C 382.910156 268.40625 382.066406 268.578125 381.242188 268.640625 C 380.414062 268.707031 379.628906 268.660156 378.875 268.507812 C 378.125 268.351562 377.425781 268.09375 376.777344 267.726562 C 376.128906 267.363281 375.546875 266.898438 375.027344 266.335938 C 374.503906 265.773438 374.058594 265.121094 373.6875 264.382812 C 373.316406 263.644531 373.023438 262.828125 372.8125 261.941406 C 372.601562 261.054688 372.476562 260.113281 372.4375 259.113281 C 372.398438 258.113281 372.445312 257.074219 372.578125 256 C 372.707031 254.925781 372.925781 253.832031 373.222656 252.722656 C 373.519531 251.613281 373.898438 250.507812 374.351562 249.410156 C 374.804688 248.308594 375.328125 247.234375 375.917969 246.183594 C 376.511719 245.136719 377.160156 244.132812 377.867188 243.171875 C 378.574219 242.214844 379.324219 241.324219 380.117188 240.492188 C 380.914062 239.664062 381.738281 238.914062 382.589844 238.246094 C 383.441406 237.574219 384.304688 237 385.183594 236.515625 C 386.058594 236.03125 386.929688 235.652344 387.796875 235.371094 C 388.664062 235.09375 389.511719 234.921875 390.335938 234.855469 C 391.160156 234.792969 391.949219 234.839844 392.699219 234.992188 C 393.453125 235.144531 394.152344 235.40625 394.800781 235.769531 Z M 394.800781 235.769531 " fill-opacity="1" fill-rule="nonzero"/><path fill="#2f2e41" d="M 433.632812 216.386719 C 433.632812 216.386719 416.367188 228.574219 422.300781 246.757812 L 417.445312 308.109375 L 428.234375 434.363281 L 451.476562 434.363281 L 455.210938 343.71875 L 470.320312 286.527344 L 472.277344 434.363281 L 501.074219 433.824219 C 501.074219 433.824219 502.691406 359.90625 500.535156 355.589844 C 498.375 351.273438 500.535156 354.738281 500.535156 354.738281 L 518.339844 268.171875 L 515.640625 208.835938 Z M 433.632812 216.386719 " fill-opacity="1" fill-rule="nonzero"/><path fill="#45a049" d="M 476.253906 65.855469 L 444.960938 77.726562 L 448.199219 86.359375 L 422.300781 105.78125 L 439.566406 166.210938 L 429.855469 220.164062 L 457.910156 219.085938 L 518.339844 213.691406 L 511.863281 147.867188 L 512.945312 84.199219 L 489.203125 75.566406 Z M 476.253906 65.855469 " fill-opacity="1" fill-rule="nonzero"/><path fill="#45a049" d="M 430.394531 104.164062 L 422.300781 105.78125 C 422.300781 105.78125 418.523438 108.480469 418.523438 118.191406 C 418.523438 127.902344 418.523438 134.378906 419.601562 139.773438 C 419.601562 139.773438 413.128906 157.039062 415.285156 161.355469 C 417.445312 165.671875 444.421875 165.671875 444.421875 165.671875 Z M 430.394531 104.164062 " fill-opacity="1" fill-rule="nonzero"/><path fill="#ffb6b6" d="M 474.988281 40.816406 C 474.988281 54.398438 463.976562 65.414062 450.390625 65.414062 C 436.804688 65.414062 425.792969 54.398438 425.792969 40.816406 C 425.792969 27.230469 436.804688 16.21875 450.390625 16.21875 C 463.976562 16.21875 474.988281 27.230469 474.988281 40.816406 Z M 474.988281 40.816406 " fill-opacity="1" fill-rule="nonzero"/><path fill="#2f2e41" d="M 465.761719 57.945312 C 465.761719 57.945312 470.121094 41.203125 465.476562 44.152344 L 458.269531 43.46875 L 462.820312 31.296875 C 462.820312 31.296875 454.675781 25.191406 451.425781 28.761719 C 448.179688 32.332031 448.957031 34.34375 446.007812 29.699219 C 443.054688 25.058594 436.886719 25.144531 431.234375 28.484375 C 425.585938 31.828125 421.171875 32.375 422.246094 26.175781 C 423.320312 19.976562 422.714844 9.441406 426.070312 10.636719 C 429.425781 11.832031 428.503906 12.507812 430.3125 8.175781 C 432.121094 3.847656 432.351562 1.445312 436.539062 3.296875 C 440.726562 5.148438 451.246094 -3.546875 455.59375 1.714844 C 459.941406 6.976562 463.738281 7.820312 467.535156 8.667969 C 471.335938 9.511719 486.59375 7.085938 485.316406 30.714844 C 485.316406 30.714844 495.5 51.074219 477.15625 60.480469 C 477.15625 60.480469 472.175781 55.566406 468.703125 61.539062 Z M 465.761719 57.945312 " fill-opacity="1" fill-rule="nonzero"/><path fill="#2f2e41" d="M 229.613281 110.789062 L 205.660156 111.535156 L 192.933594 127.257812 L 178.710938 130.25 C 178.710938 130.25 174.21875 172.171875 180.957031 187.140625 C 187.695312 202.113281 184.699219 206.605469 184.699219 206.605469 L 238.597656 205.855469 C 238.597656 205.855469 237.097656 195.6875 246.082031 186.921875 L 250.585938 170.253906 C 252.996094 161.339844 252.175781 151.859375 248.269531 143.496094 L 238.597656 122.765625 L 230.363281 119.769531 Z M 229.613281 110.789062 " fill-opacity="1" fill-rule="nonzero"/><path fill="#2f2e41" d="M 184.699219 215.585938 L 181.332031 221.199219 C 181.332031 221.199219 170.851562 235.425781 169.355469 275.847656 C 167.855469 316.269531 180.207031 447.070312 180.207031 447.070312 L 197.300781 447.070312 L 215.78125 270.101562 L 240.46875 447.269531 L 262.550781 447.640625 L 260.679688 266.863281 C 260.679688 266.863281 256.1875 225.691406 244.210938 216.710938 C 244.210938 216.710938 205.660156 251.519531 184.699219 215.585938 Z M 184.699219 215.585938 " fill-opacity="1" fill-rule="nonzero"/><path fill="#45a049" d="M 153.523438 126.90625 C 153.523438 134.679688 153.054688 140.460938 144.570312 140.976562 C 136.597656 141.464844 135.617188 134.679688 135.617188 126.90625 C 135.617188 119.136719 135.800781 112.898438 144.570312 112.835938 C 154.554688 112.761719 153.523438 119.136719 153.523438 126.90625 Z M 153.523438 126.90625 " fill-opacity="1" fill-rule="nonzero"/><path fill="#45a049" d="M 203.414062 126.90625 C 203.414062 134.679688 205.457031 140.460938 194.460938 140.976562 C 186 141.375 185.503906 134.679688 185.503906 126.90625 C 185.503906 119.136719 186.746094 113.707031 194.460938 112.835938 C 201.714844 112.015625 203.414062 119.136719 203.414062 126.90625 Z M 203.414062 126.90625 " fill-opacity="1" fill-rule="nonzero"/><path fill="#45a049" d="M 145.847656 120.511719 L 195.738281 120.511719 L 195.738281 132.023438 L 145.847656 132.023438 Z M 145.847656 120.511719 " fill-opacity="1" fill-rule="nonzero"/><path fill="#45a049" d="M 239.609375 124.660156 C 239.609375 132.433594 239.140625 138.214844 230.65625 138.730469 C 222.683594 139.21875 221.699219 132.433594 221.699219 124.660156 C 221.699219 116.890625 221.886719 110.652344 230.65625 110.589844 C 240.636719 110.519531 239.609375 116.890625 239.609375 124.660156 Z M 239.609375 124.660156 " fill-opacity="1" fill-rule="nonzero"/><path fill="#45a049" d="M 289.5 124.660156 C 289.5 132.433594 291.542969 138.214844 280.542969 138.730469 C 272.085938 139.128906 271.589844 132.433594 271.589844 124.660156 C 271.589844 116.890625 272.832031 111.460938 280.542969 110.589844 C 287.796875 109.769531 289.5 116.890625 289.5 124.660156 Z M 289.5 124.660156 " fill-opacity="1" fill-rule="nonzero"/><path fill="#45a049" d="M 231.933594 118.265625 L 281.824219 118.265625 L 281.824219 129.777344 L 231.933594 129.777344 Z M 231.933594 118.265625 " fill-opacity="1" fill-rule="nonzero"/><path fill="#45a049" d="M 369.859375 247.425781 C 369.859375 255.195312 369.390625 260.980469 360.90625 261.496094 C 352.933594 261.984375 351.949219 255.195312 351.949219 247.425781 C 351.949219 239.652344 352.136719 233.417969 360.90625 233.355469 C 370.890625 233.28125 369.859375 239.652344 369.859375 247.425781 Z M 369.859375 247.425781 " fill-opacity="1" fill-rule="nonzero"/><path fill="#45a049" d="M 419.75 247.425781 C 419.75 255.195312 421.792969 260.980469 410.792969 261.496094 C 402.335938 261.894531 401.839844 255.195312 401.839844 247.425781 C 401.839844 239.652344 403.082031 234.226562 410.792969 233.355469 C 418.046875 232.535156 419.75 239.652344 419.75 247.425781 Z M 419.75 247.425781 " fill-opacity="1" fill-rule="nonzero"/><path fill="#45a049" d="M 362.183594 241.03125 L 412.074219 241.03125 L 412.074219 252.542969 L 362.183594 252.542969 Z M 362.183594 241.03125 " fill-opacity="1" fill-rule="nonzero"/><path fill="#ffb6b6" d="M 266.988281 126.597656 C 266.988281 127.628906 266.925781 128.652344 266.800781 129.667969 C 266.675781 130.683594 266.492188 131.667969 266.246094 132.621094 C 266.003906 133.578125 265.703125 134.484375 265.347656 135.34375 C 264.996094 136.203125 264.589844 137 264.140625 137.730469 C 263.6875 138.460938 263.195312 139.113281 262.664062 139.6875 C 262.132812 140.261719 261.574219 140.75 260.984375 141.144531 C 260.394531 141.539062 259.785156 141.839844 259.160156 142.039062 C 258.535156 142.242188 257.902344 142.34375 257.261719 142.34375 C 256.625 142.34375 255.992188 142.242188 255.363281 142.039062 C 254.738281 141.839844 254.128906 141.539062 253.539062 141.144531 C 252.949219 140.75 252.390625 140.261719 251.859375 139.6875 C 251.328125 139.113281 250.835938 138.460938 250.382812 137.730469 C 249.933594 137 249.53125 136.203125 249.175781 135.34375 C 248.820312 134.484375 248.519531 133.578125 248.277344 132.621094 C 248.03125 131.667969 247.847656 130.683594 247.722656 129.667969 C 247.597656 128.652344 247.535156 127.628906 247.535156 126.597656 C 247.535156 125.5625 247.597656 124.539062 247.722656 123.523438 C 247.847656 122.511719 248.03125 121.523438 248.277344 120.570312 C 248.519531 119.613281 248.820312 118.707031 249.175781 117.847656 C 249.53125 116.988281 249.933594 116.191406 250.386719 115.460938 C 250.835938 114.730469 251.328125 114.078125 251.859375 113.503906 C 252.390625 112.929688 252.949219 112.445312 253.539062 112.046875 C 254.128906 111.652344 254.738281 111.351562 255.363281 111.152344 C 255.992188 110.949219 256.625 110.847656 257.261719 110.847656 C 257.902344 110.847656 258.535156 110.949219 259.160156 111.152344 C 259.785156 111.351562 260.394531 111.652344 260.984375 112.046875 C 261.574219 112.445312 262.132812 112.929688 262.664062 113.503906 C 263.195312 114.078125 263.6875 114.730469 264.140625 115.460938 C 264.589844 116.191406 264.996094 116.988281 265.347656 117.847656 C 265.703125 118.707031 266.003906 119.613281 266.246094 120.570312 C 266.492188 121.523438 266.675781 122.511719 266.800781 123.523438 C 266.925781 124.539062 266.988281 125.5625 266.988281 126.597656 Z M 266.988281 126.597656 " fill-opacity="1" fill-rule="nonzero"/><path fill="#ffb6b6" d="M 237.847656 75.230469 C 237.847656 76.101562 237.804688 76.96875 237.71875 77.835938 C 237.636719 78.703125 237.507812 79.5625 237.335938 80.414062 C 237.167969 81.269531 236.957031 82.113281 236.703125 82.945312 C 236.453125 83.777344 236.160156 84.597656 235.824219 85.398438 C 235.492188 86.203125 235.121094 86.988281 234.710938 87.757812 C 234.300781 88.523438 233.851562 89.269531 233.371094 89.996094 C 232.886719 90.71875 232.367188 91.417969 231.816406 92.089844 C 231.265625 92.761719 230.679688 93.40625 230.066406 94.023438 C 229.449219 94.636719 228.804688 95.222656 228.132812 95.773438 C 227.460938 96.324219 226.761719 96.84375 226.039062 97.328125 C 225.3125 97.808594 224.570312 98.257812 223.800781 98.667969 C 223.035156 99.078125 222.246094 99.449219 221.445312 99.78125 C 220.640625 100.113281 219.820312 100.40625 218.988281 100.660156 C 218.15625 100.914062 217.3125 101.125 216.457031 101.292969 C 215.605469 101.464844 214.746094 101.589844 213.878906 101.675781 C 213.011719 101.761719 212.144531 101.804688 211.273438 101.804688 C 210.402344 101.804688 209.535156 101.761719 208.667969 101.675781 C 207.804688 101.589844 206.941406 101.464844 206.089844 101.292969 C 205.234375 101.125 204.394531 100.914062 203.558594 100.660156 C 202.726562 100.40625 201.910156 100.113281 201.105469 99.78125 C 200.300781 99.449219 199.515625 99.078125 198.746094 98.667969 C 197.980469 98.257812 197.234375 97.808594 196.511719 97.328125 C 195.785156 96.84375 195.089844 96.324219 194.414062 95.773438 C 193.742188 95.222656 193.097656 94.636719 192.484375 94.023438 C 191.867188 93.40625 191.285156 92.761719 190.730469 92.089844 C 190.179688 91.417969 189.660156 90.71875 189.179688 89.996094 C 188.695312 89.269531 188.25 88.523438 187.835938 87.757812 C 187.425781 86.988281 187.054688 86.203125 186.722656 85.398438 C 186.390625 84.597656 186.097656 83.777344 185.84375 82.945312 C 185.589844 82.113281 185.378906 81.269531 185.210938 80.414062 C 185.039062 79.5625 184.914062 78.703125 184.828125 77.835938 C 184.742188 76.96875 184.699219 76.101562 184.699219 75.230469 C 184.699219 74.359375 184.742188 73.492188 184.828125 72.625 C 184.914062 71.761719 185.039062 70.898438 185.210938 70.046875 C 185.378906 69.191406 185.589844 68.351562 185.84375 67.515625 C 186.097656 66.683594 186.390625 65.867188 186.722656 65.0625 C 187.054688 64.257812 187.425781 63.472656 187.835938 62.703125 C 188.25 61.9375 188.695312 61.191406 189.179688 60.46875 C 189.660156 59.742188 190.179688 59.046875 190.730469 58.371094 C 191.285156 57.699219 191.867188 57.054688 192.484375 56.441406 C 193.097656 55.824219 193.742188 55.242188 194.414062 54.6875 C 195.089844 54.136719 195.785156 53.617188 196.511719 53.136719 C 197.234375 52.652344 197.980469 52.203125 198.746094 51.792969 C 199.515625 51.382812 200.300781 51.011719 201.105469 50.679688 C 201.910156 50.347656 202.726562 50.054688 203.558594 49.800781 C 204.394531 49.546875 205.234375 49.335938 206.089844 49.167969 C 206.941406 48.996094 207.804688 48.871094 208.667969 48.785156 C 209.535156 48.699219 210.402344 48.65625 211.273438 48.65625 C 212.144531 48.65625 213.011719 48.699219 213.878906 48.785156 C 214.746094 48.871094 215.605469 48.996094 216.457031 49.167969 C 217.3125 49.335938 218.15625 49.546875 218.988281 49.800781 C 219.820312 50.054688 220.640625 50.347656 221.445312 50.679688 C 222.246094 51.011719 223.035156 51.382812 223.800781 51.792969 C 224.570312 52.203125 225.3125 52.652344 226.039062 53.136719 C 226.761719 53.617188 227.460938 54.136719 228.132812 54.6875 C 228.804688 55.242188 229.449219 55.824219 230.066406 56.441406 C 230.679688 57.054688 231.265625 57.699219 231.816406 58.371094 C 232.367188 59.046875 232.886719 59.742188 233.371094 60.46875 C 233.851562 61.191406 234.300781 61.9375 234.710938 62.703125 C 235.121094 63.472656 235.492188 64.257812 235.824219 65.0625 C 236.160156 65.867188 236.453125 66.683594 236.703125 67.515625 C 236.957031 68.351562 237.167969 69.191406 237.335938 70.046875 C 237.507812 70.898438 237.636719 71.761719 237.71875 72.625 C 237.804688 73.492188 237.847656 74.359375 237.847656 75.230469 Z M 237.847656 75.230469 " fill-opacity="1" fill-rule="nonzero"/><path fill="#2f2e41" d="M 205.9375 83.582031 L 212.085938 73.796875 L 214.855469 60.488281 C 214.855469 60.488281 242.863281 67.320312 235.351562 53.65625 C 227.835938 39.996094 208.707031 36.578125 195.726562 46.824219 L 190.132812 52.292969 C 190.132812 52.292969 202.558594 40.679688 195.042969 36.578125 C 187.53125 32.480469 188.894531 29.746094 184.796875 33.164062 C 180.699219 36.578125 182.746094 39.3125 177.964844 37.261719 C 173.183594 35.210938 162.9375 32.480469 164.300781 35.894531 C 165.667969 39.3125 155.363281 48.191406 159.148438 52.292969 C 162.9375 56.390625 159.519531 64.589844 166.351562 62.539062 C 173.183594 60.488281 169.765625 70.738281 175.914062 66.636719 C 175.914062 66.636719 170.871094 73.070312 174.96875 77.851562 C 179.066406 82.632812 185.382812 84.492188 184.699219 91.324219 C 184.015625 98.15625 200.417969 99.558594 200.417969 99.558594 L 199.144531 79.617188 C 199.144531 79.617188 203.207031 76.285156 205.9375 83.582031 Z M 205.9375 83.582031 " fill-opacity="1" fill-rule="nonzero"/><path fill="#ffb6b6" d="M 476.488281 129.433594 C 476.488281 129.433594 472.570312 142.703125 473.839844 151.769531 L 429.550781 210.449219 L 442.117188 222.460938 L 496.445312 170.183594 L 506.757812 142.140625 Z M 476.488281 129.433594 " fill-opacity="1" fill-rule="nonzero"/><path fill="#ffb6b6" d="M 440.75 209.941406 C 441.34375 210.390625 441.863281 210.925781 442.300781 211.554688 C 442.742188 212.179688 443.097656 212.886719 443.371094 213.667969 C 443.640625 214.449219 443.820312 215.292969 443.914062 216.199219 C 444.003906 217.109375 444 218.058594 443.910156 219.054688 C 443.816406 220.054688 443.632812 221.074219 443.359375 222.125 C 443.085938 223.171875 442.726562 224.226562 442.285156 225.285156 C 441.839844 226.347656 441.320312 227.390625 440.726562 228.421875 C 440.128906 229.453125 439.46875 230.449219 438.742188 231.410156 C 438.019531 232.371094 437.242188 233.277344 436.414062 234.132812 C 435.585938 234.988281 434.722656 235.777344 433.824219 236.492188 C 432.929688 237.210938 432.011719 237.84375 431.078125 238.394531 C 430.144531 238.945312 429.214844 239.398438 428.28125 239.761719 C 427.347656 240.125 426.433594 240.386719 425.535156 240.550781 C 424.636719 240.710938 423.777344 240.769531 422.949219 240.722656 C 422.125 240.675781 421.347656 240.527344 420.625 240.277344 C 419.902344 240.023438 419.242188 239.671875 418.648438 239.226562 C 418.054688 238.777344 417.539062 238.238281 417.097656 237.613281 C 416.65625 236.984375 416.300781 236.28125 416.027344 235.5 C 415.757812 234.71875 415.578125 233.871094 415.488281 232.964844 C 415.394531 232.058594 415.398438 231.105469 415.492188 230.109375 C 415.582031 229.113281 415.765625 228.089844 416.039062 227.042969 C 416.3125 225.996094 416.671875 224.941406 417.117188 223.878906 C 417.558594 222.820312 418.078125 221.777344 418.671875 220.746094 C 419.269531 219.714844 419.929688 218.71875 420.65625 217.757812 C 421.382812 216.796875 422.15625 215.886719 422.984375 215.03125 C 423.8125 214.175781 424.675781 213.390625 425.574219 212.675781 C 426.472656 211.957031 427.386719 211.324219 428.320312 210.773438 C 429.253906 210.222656 430.1875 209.765625 431.117188 209.402344 C 432.050781 209.039062 432.96875 208.777344 433.863281 208.617188 C 434.761719 208.457031 435.621094 208.398438 436.449219 208.445312 C 437.273438 208.488281 438.050781 208.640625 438.773438 208.890625 C 439.496094 209.144531 440.15625 209.492188 440.75 209.941406 Z M 440.75 209.941406 " fill-opacity="1" fill-rule="nonzero"/><path fill="#45a049" d="M 508.585938 80.65625 C 508.585938 80.65625 522.382812 85.660156 520.625 95.152344 C 518.871094 104.640625 518.207031 110.898438 518.207031 110.898438 C 518.207031 110.898438 519.699219 116.082031 517.75 118.667969 C 515.800781 121.25 505.789062 151.546875 505.789062 151.546875 L 469.777344 139.238281 C 469.777344 139.238281 490.886719 80.816406 508.585938 80.65625 Z M 508.585938 80.65625 " fill-opacity="1" fill-rule="nonzero"/><g clip-path="url(#e4bf0ea5aa)"><path fill="#e6e6e6" d="M 603.0625 486.871094 C 603.0625 487.21875 602.78125 487.5 602.433594 487.5 L 1.066406 487.5 C 0.71875 487.5 0.4375 487.21875 0.4375 486.871094 C 0.4375 486.523438 0.71875 486.242188 1.066406 486.242188 L 602.433594 486.242188 C 602.78125 486.242188 603.0625 486.523438 603.0625 486.871094 Z M 603.0625 486.871094 " fill-opacity="1" fill-rule="nonzero"/></g><path fill="#ffb6b6" d="M 181.292969 127.308594 C 181.292969 136.003906 176.9375 143.054688 171.566406 143.054688 C 166.195312 143.054688 161.839844 136.003906 161.839844 127.308594 C 161.839844 118.613281 166.195312 111.5625 171.566406 111.5625 C 176.9375 111.5625 181.292969 118.613281 181.292969 127.308594 Z M 181.292969 127.308594 " fill-opacity="1" fill-rule="nonzero"/></svg>